<?xml version="1.0" encoding="UTF-8"?>
<svg xmlns="http://www.w3.org/2000/svg" width="156" height="36" viewBox="0 0 156 36" fill="none">
  <g clip-path="url(#clip0_3551_1976)">
    <path d="M75.3 23.2C75.3 26.2 72.4 27.7 66.8 27.7H55.4C54.5 27.7 54 27.3 54 26.6C54 25.9 54.5 25.5 55.4 25.5H66.8C70.4 25.5 72.3 24.7 72.3 23.2V21.2C72.3 19.7 70.6 18.9 67.1 18.9H61.8C56.7 18.9 54.2 17.5 54.2 14.8V12.8C54.2 9.9 56.8 8.5 62 8.5H65.1C66 8.5 66.5 8.9 66.5 9.6C66.5 10.3 66 10.7 65.1 10.7H62C58.8 10.7 57.2 11.4 57.2 12.8V14.5C57.2 15.9 58.7 16.6 61.8 16.6H66.9C72.5 16.6 75.4 18.1 75.4 21V23.3L75.3 23.2Z" fill="#3C4091"></path>
    <path d="M88.2 27.6998C82.7 27.6998 80 25.8998 80 22.2998V13.5998C80 10.0998 82.7 8.2998 88.1 8.2998H92.1C93 8.2998 93.5 8.6998 93.5 9.3998C93.5 10.0998 93 10.4998 92.1 10.4998H88.2C84.8 10.4998 83.1 11.4998 83.1 13.5998V16.7998H99.8C100.7 16.7998 101.1 17.1998 101.1 17.8998C101.1 18.5998 100.7 18.9998 99.8 18.9998H83.1V22.1998C83.1 24.2998 84.8 25.3998 88.4 25.3998H99.8C100.8 25.3998 101.2 25.7998 101.2 26.4998C101.2 27.1998 100.7 27.5998 99.8 27.5998H88.3L88.2 27.6998Z" fill="#3C4091"></path>
    <path d="M114.2 27.6998C108.7 27.6998 106 25.8998 106 22.2998V13.5998C106 10.0998 108.7 8.2998 114.1 8.2998H124.8C125.7 8.2998 126.2 8.6998 126.2 9.3998C126.2 10.0998 125.7 10.4998 124.8 10.4998H114.1C110.7 10.4998 109 11.4998 109 13.5998V22.1998C109 24.2998 110.7 25.3998 114.3 25.3998H124.7C125.6 25.3998 126.1 25.7998 126.1 26.4998C126.1 27.1998 125.6 27.5998 124.7 27.5998H114.1L114.2 27.6998Z" fill="#3C4091"></path>
    <path d="M149.9 22.4996H135.8L132.9 26.9996C132.5 27.5996 132 27.7996 131.4 27.7996C130.5 27.7996 129.9 27.3996 129.9 26.6996C129.9 25.9996 129.9 26.1996 130.2 25.7996L141.3 8.89961C141.6 8.39961 142.2 8.19961 142.8 8.09961C143.4 8.09961 143.9 8.39961 144.3 8.89961L155.4 25.7996C155.7 26.1996 155.8 26.3996 155.8 26.6996C155.8 27.3996 155.2 27.7996 154.3 27.7996C153.4 27.7996 153.2 27.4996 152.9 26.9996L150 22.4996H149.9ZM137.2 20.3996H148.6L142.9 11.5996L137.2 20.3996Z" fill="#3C4091"></path>
    <path d="M40.0002 13.4997C39.4002 13.2997 39.2002 12.9997 39.1002 12.3997C38.7002 8.19965 35.1002 4.99965 30.8002 5.19965C30.3002 5.19965 30.0002 4.99965 29.7002 4.69965C26.4002 -0.000347137 20.2002 -1.30035 15.2002 1.39965C11.9002 3.19965 9.90017 5.99965 9.00017 9.69965C9.00017 9.99965 8.90017 10.2997 8.40017 10.3997C3.50017 11.3997 0.200168 15.1997 0.000168052 20.1997C-0.299832 26.3997 4.70017 30.5997 9.50017 30.3997C12.3002 30.3997 15.2002 30.3997 18.0002 30.3997H19.2002V31.5997L17.9002 32.8997C17.7002 32.7997 17.4002 32.6997 17.1002 32.8997C16.8002 32.9997 16.6002 33.2997 16.6002 33.6997C16.6002 34.2997 17.1002 34.6997 17.6002 34.4997C18.1002 34.4997 18.4002 33.9997 18.3002 33.4997L19.6002 32.1997C19.7002 32.0997 19.8002 31.9997 19.8002 31.7997V28.3997C20.0002 28.3997 20.2002 28.3997 20.4002 28.3997C20.8002 28.3997 21.0002 28.3997 21.1002 28.5997V33.2997L19.8002 34.5997C19.6002 34.4997 19.3002 34.3997 19.0002 34.5997C18.7002 34.6996 18.5002 34.9997 18.5002 35.3997C18.5002 35.9997 19.0002 36.3997 19.5002 36.1997C20.0002 36.1997 20.3002 35.6997 20.2002 35.1997L21.5002 33.8997C21.6002 33.7997 21.7002 33.6997 21.7002 33.4997V28.7997C21.8002 28.5997 22.1002 28.5997 22.4002 28.5997C22.7002 28.5997 23.0002 28.5997 23.1002 28.7997V33.3997C23.1002 33.4997 23.1002 33.6997 23.3002 33.7997L24.6002 35.0997C24.6002 35.5997 24.8002 35.9997 25.3002 36.0997C25.8002 36.1996 26.3002 35.7997 26.3002 35.2997C26.3002 34.9997 26.1002 34.6997 25.8002 34.4997C25.5002 34.3997 25.2002 34.4997 25.0002 34.4997L23.7002 33.1997V28.6997C23.8002 28.3997 24.1002 28.2997 24.5002 28.3997C24.6002 28.3997 24.8002 28.3997 24.9002 28.3997V31.7997C24.9002 31.8997 24.9002 32.0997 25.1002 32.1997L26.4002 33.4997C26.4002 33.9997 26.6002 34.3997 27.1002 34.4997C27.6002 34.5997 28.1002 34.1997 28.1002 33.6997C28.1002 33.3997 27.9002 33.0997 27.6002 32.8997C27.3002 32.7997 27.0002 32.8997 26.8002 32.8997L25.5002 31.5997V30.3997H26.2002C26.2002 30.3997 33.2002 30.3997 36.6002 30.3997C40.6002 30.3997 44.3002 27.2997 45.0002 23.1997C45.8002 18.9997 43.7002 14.8997 39.8002 13.3997L40.0002 13.4997ZM44.6002 22.7997C44.0002 26.6997 40.6002 29.6997 36.7002 29.6997C35.0002 29.6997 33.3002 29.6997 31.6002 29.6997C29.7002 29.6997 27.5002 29.6997 25.7002 29.6997V28.2997C27.4002 28.2997 29.1002 28.2997 30.8002 28.2997C32.8002 28.2997 34.9002 28.2997 36.9002 28.2997C41.0002 28.1997 44.1002 24.2997 43.2002 20.2997C42.5002 17.1997 40.5002 15.5997 37.5002 14.9997C37.1002 14.9997 36.9002 14.7997 37.0002 14.2997C37.7002 9.89965 34.1002 6.49965 29.7002 7.39965C29.3002 7.39965 29.1002 7.39965 28.9002 6.99965C25.9002 1.59965 18.6002 0.499653 14.0002 4.69965C12.0002 6.59965 11.1002 8.99965 10.7002 11.6997C10.7002 12.1997 10.5002 12.3997 9.90017 12.3997C8.80017 12.3997 7.70017 12.5997 6.70017 12.9997C3.20017 14.6997 1.40017 18.4997 2.30017 22.3997C3.10017 25.9997 6.10017 28.1997 10.1002 28.1997C13.2002 28.1997 16.2002 28.1997 19.3002 28.1997V29.5997C16.1002 29.5997 13.0002 29.5997 9.80017 29.5997C9.20017 29.5997 8.60017 29.5997 8.00017 29.4997C3.60017 28.4997 0.700168 24.7997 0.900168 20.1997C1.00017 15.5997 4.30017 11.6997 8.70017 11.0997C9.40017 10.9997 9.70017 10.6997 9.80017 9.99965C10.8002 5.29965 13.6002 2.09965 18.3002 0.999653C22.8002 -0.000346959 26.7002 1.59965 29.5002 5.39965C29.8002 5.79965 30.0002 5.89965 30.5002 5.79965C34.8002 5.49965 38.3002 8.69965 38.5002 12.9997C38.5002 13.4997 38.6002 13.6997 39.1002 13.8997C42.9002 15.0997 45.2002 18.8997 44.6002 22.7997Z" fill="#3C4091"></path>
    <path d="M22.4002 7.69922L22.1002 8.59922H21.2002L21.9002 9.09922L21.6002 9.89922L22.4002 9.39922L23.1002 9.89922L22.8002 9.09922L23.5002 8.59922H22.6002L22.4002 7.69922Z" fill="#FFCB03"></path>
    <path d="M22.6002 23.299L22.4002 22.499L22.1002 23.299H21.2002L21.9002 23.799L21.6002 24.699L22.4002 24.199L23.1002 24.699L22.8002 23.799L23.5002 23.299H22.6002Z" fill="#FFCB03"></path>
    <path d="M15.0003 16.7996L15.7003 17.2996L15.4003 16.4996L16.2003 15.8996H15.3003L15.0003 15.0996L14.7003 15.8996H13.8003L14.5003 16.4996L14.3003 17.2996L15.0003 16.7996Z" fill="#FFCB03"></path>
    <path d="M18.7005 8.69922L18.4005 9.59922H17.5005L18.2005 10.0992L18.0005 10.8992L18.7005 10.3992L19.4005 10.8992L19.1005 10.0992L19.8005 9.59922H18.9005L18.7005 8.69922Z" fill="#FFCB03"></path>
    <path d="M16.0003 11.3994L15.7003 12.2994H14.8003L15.5003 12.7994L15.3003 13.5994L16.0003 13.0994L16.7003 13.5994L16.4003 12.7994L17.1003 12.2994H16.3003L16.0003 11.3994Z" fill="#FFCB03"></path>
    <path d="M16.3003 19.5988L16.0003 18.7988L15.7003 19.5988H14.8003L15.5003 20.0988L15.3003 20.9988L16.0003 20.4988L16.7003 20.9988L16.4003 20.0988L17.1003 19.5988H16.3003Z" fill="#FFCB03"></path>
    <path d="M18.9005 22.299L18.7005 21.499L18.4005 22.299H17.5005L18.2005 22.799L18.0005 23.699L18.7005 23.199L19.4005 23.699L19.1005 22.799L19.8005 22.299H18.9005Z" fill="#FFCB03"></path>
    <path d="M30.9001 15.8996H30.0001L29.7001 15.0996L29.5001 15.8996H28.6001L29.3001 16.4996L29.0001 17.2996L29.7001 16.7996L30.4001 17.2996L30.2001 16.4996L30.9001 15.8996Z" fill="#FFCB03"></path>
    <path d="M26.0004 8.69922L25.8004 9.59922H24.9004L25.6004 10.0992L25.3004 10.8992L26.0004 10.3992L26.8004 10.8992L26.5004 10.0992L27.2004 9.59922H26.3004L26.0004 8.69922Z" fill="#FFCB03"></path>
    <path d="M28.3001 12.7994L28.0001 13.5994L28.7001 13.0994L29.5001 13.5994L29.2001 12.7994L29.9001 12.2994H29.0001L28.7001 11.3994L28.5001 12.2994H27.6001L28.3001 12.7994Z" fill="#FFCB03"></path>
    <path d="M29.0001 19.5988L28.7001 18.7988L28.5001 19.5988H27.6001L28.3001 20.0988L28.0001 20.9988L28.7001 20.4988L29.5001 20.9988L29.2001 20.0988L29.9001 19.5988H29.0001Z" fill="#FFCB03"></path>
    <path d="M26.3004 22.299L26.0004 21.499L25.8004 22.299H24.9004L25.6004 22.799L25.3004 23.699L26.0004 23.199L26.8004 23.699L26.5004 22.799L27.2004 22.299H26.3004Z" fill="#FFCB03"></path>
  </g>
  <defs>
    <clipPath id="clip0_3551_1976">
      <rect width="155.8" height="36" fill="white"></rect>
    </clipPath>
  </defs>
</svg>
