<svg preserveAspectRatio="xMidYMid meet" viewBox="0 0 512 512" xmlns="http://www.w3.org/2000/svg" width="512" height="512"><path d="m272.463 52.495 2.936 1.448c3.17 1.571 6.32 3.176 9.472 4.784q3.318 1.662 6.639 3.32 6.934 3.47 13.845 6.986c5.9 2.998 11.818 5.963 17.74 8.917q6.848 3.422 13.68 6.872 3.269 1.647 6.544 3.284c3.048 1.527 6.087 3.072 9.124 4.623l2.722 1.351c5.79 2.99 9.847 5.943 12.835 11.92.092 1.444.122 2.893.12 4.34l.004 2.763-.01 3.038v3.193c0 3.496-.009 6.99-.016 10.486l-.005 7.256q-.006 9.562-.024 19.126-.014 9.752-.02 19.505-.016 19.147-.049 38.293l2.48.75c4.116 1.462 7.927 3.294 11.833 5.237l2.46 1.213q4.01 1.98 8.012 3.972l2.773 1.376q7.257 3.601 14.509 7.218c4.986 2.484 9.98 4.952 14.976 7.416q5.773 2.856 11.533 5.735 2.758 1.373 5.522 2.732c2.58 1.269 5.15 2.555 7.719 3.846l2.297 1.115c5.4 2.749 9.112 5.843 11.886 11.39.101 1.633.14 3.271.147 4.908l.022 3.143.008 3.464.02 3.636q.028 5.979.041 11.958l.013 4.118q.029 9.673.041 19.346.015 11.162.077 22.325.044 8.63.048 17.259c.002 3.435.011 6.87.036 10.305.028 3.836.024 7.67.017 11.506l.039 3.438c-.04 5.992-.15 10.077-4.509 14.594-5.315 4.004-11.43 6.882-17.347 9.882-.898.46-1.797.918-2.723 1.391q-4.423 2.255-8.852 4.497l-3.075 1.557a9402 9402 0 0 1-16.108 8.13q-6.644 3.35-13.268 6.737a2396 2396 0 0 1-16.095 8.148 835 835 0 0 0-6.1 3.107C354.71 450.609 354.71 450.609 346 448c-6.998-2.682-13.582-6.19-20.21-9.66q-2.912-1.487-5.825-2.967a2528 2528 0 0 1-15.233-7.828 4189 4189 0 0 0-24.438-12.544c-2.842-1.454-5.674-2.93-8.505-4.406l-5.22-2.67-2.371-1.257c-3.27-1.649-5.51-2.668-9.21-2.667-4 1.337-7.638 3.11-11.373 5.06l-2.486 1.271q-2.664 1.365-5.323 2.737a1597 1597 0 0 1-8.455 4.323 4657 4657 0 0 0-24.032 12.291 2102 2102 0 0 1-14.726 7.512 647 647 0 0 0-5.58 2.872 629 629 0 0 1-7.851 4.002l-2.278 1.213c-6.938 3.419-14.063 4.165-21.538 1.921-2.68-1.114-5.233-2.363-7.809-3.698l-2.936-1.448a931 931 0 0 1-9.472-4.784 4885 4885 0 0 0-6.639-3.32 2496 2496 0 0 1-13.845-6.986c-5.9-2.998-11.818-5.963-17.74-8.917q-6.847-3.422-13.68-6.872a2200 2200 0 0 0-6.544-3.284 1330 1330 0 0 1-9.124-4.623l-2.722-1.351c-5.79-2.99-9.847-5.943-12.835-11.92a86 86 0 0 1-.147-4.908l-.022-3.143-.008-3.464-.02-3.636c-.02-3.986-.031-7.972-.041-11.958l-.013-4.118q-.029-9.673-.041-19.346a5419 5419 0 0 0-.077-22.325 3696 3696 0 0 1-.048-17.259c-.002-3.435-.011-6.87-.036-10.305-.028-3.836-.024-7.67-.017-11.506l-.039-3.438c.04-5.992.15-10.077 4.509-14.594 5.044-3.783 10.775-6.532 16.404-9.331l2.417-1.214a3679 3679 0 0 1 7.827-3.912l5.467-2.736q5.704-2.854 11.413-5.701 7.327-3.657 14.648-7.328 5.631-2.82 11.267-5.633 2.703-1.35 5.404-2.705 3.76-1.883 7.526-3.756c.747-.375 1.494-.75 2.263-1.138C141.771 214 141.771 214 144 214l-.011-1.67q-.133-20.131-.196-40.263-.03-9.736-.095-19.472-.063-9.394-.078-18.79-.01-3.585-.043-7.17a1088 1088 0 0 1-.031-10.04l-.044-2.995c.034-5.69.451-9.26 4.498-13.6 5.304-4.013 11.434-6.884 17.347-9.882.898-.46 1.797-.918 2.723-1.391q4.423-2.255 8.852-4.497l3.075-1.557a9402 9402 0 0 1 16.108-8.13q6.645-3.35 13.268-6.737c5.354-2.738 10.72-5.451 16.095-8.148a835 835 0 0 0 6.1-3.107 731 731 0 0 1 8.568-4.316l2.494-1.308c10.563-5.152 19.684-3.691 29.833 1.568M248.405 85.57l-3.396 1.699-3.65 1.856q-1.874.942-3.75 1.883c-3.284 1.65-6.564 3.31-9.843 4.972-3.349 1.695-6.702 3.38-10.055 5.067A8791 8791 0 0 0 198 111v2a4438 4438 0 0 0 21.594 11.004 1925 1925 0 0 1 10.028 5.109q4.833 2.48 9.687 4.92 1.847.936 3.686 1.887c1.72.89 3.451 1.757 5.183 2.623l2.974 1.514c4.397 1.456 7.426.53 11.62-1.202l2.866-1.447 3.275-1.638 3.485-1.774q1.803-.907 3.607-1.812c3.15-1.582 6.295-3.175 9.44-4.769 3.214-1.628 6.434-3.247 9.653-4.866A8044 8044 0 0 0 314 113v-2q-10.842-5.491-21.697-10.952-5.041-2.536-10.075-5.085-4.858-2.46-9.726-4.902a906 906 0 0 1-3.708-1.876 884 884 0 0 0-5.2-2.615l-2.987-1.507c-4.863-1.983-7.77-.728-12.202 1.507M176 139v75l30.875 15.5 9.753 4.904 5.764 2.888q1.928.966 3.855 1.937 2.915 1.468 5.835 2.925l3.324 1.67c2.423 1.314 2.423 1.314 4.594 1.176v-75l-30.875-15.5-9.753-4.904-5.764-2.888q-1.928-.966-3.855-1.937-2.915-1.468-5.835-2.925l-3.324-1.67c-2.423-1.314-2.423-1.314-4.594-1.176m152.082 2.846-1.863.93q-2.99 1.5-5.977 3.005l-3.687 1.847c-4.562 2.286-9.12 4.58-13.68 6.872L272 170v75c4.343-1.448 7.971-2.863 12.005-4.89l3.567-1.783 3.701-1.866 3.437-1.721q6.335-3.179 12.665-6.365L336 214v-75c-3.06 0-5.193 1.478-7.918 2.846M152.405 245.57l-3.396 1.699-3.65 1.856q-1.874.942-3.75 1.883-4.925 2.477-9.843 4.972c-3.349 1.695-6.702 3.38-10.055 5.067A8791 8791 0 0 0 102 271v2a4438 4438 0 0 0 21.594 11.004 1925 1925 0 0 1 10.028 5.109q4.833 2.48 9.687 4.92 1.847.936 3.686 1.887c1.72.89 3.451 1.757 5.183 2.623l2.974 1.514c4.397 1.456 7.426.53 11.62-1.202l2.866-1.447 3.275-1.638 3.485-1.774q1.803-.907 3.607-1.812c3.15-1.582 6.295-3.175 9.44-4.769 3.214-1.628 6.434-3.247 9.653-4.866A8044 8044 0 0 0 218 273v-2q-10.842-5.491-21.697-10.952-5.041-2.536-10.075-5.085-4.858-2.46-9.726-4.902a906 906 0 0 1-3.708-1.876 884 884 0 0 0-5.2-2.615l-2.987-1.507c-4.863-1.983-7.77-.728-12.202 1.507m192 0-3.396 1.699-3.65 1.856q-1.874.942-3.75 1.883-4.925 2.477-9.843 4.972c-3.349 1.695-6.702 3.38-10.055 5.067A8791 8791 0 0 0 294 271v2a4438 4438 0 0 0 21.594 11.004 1925 1925 0 0 1 10.028 5.109q4.833 2.48 9.687 4.92 1.847.936 3.686 1.887c1.72.89 3.451 1.757 5.183 2.623l2.974 1.514c4.397 1.456 7.426.53 11.62-1.202l2.866-1.447 3.275-1.638 3.485-1.774q1.803-.907 3.607-1.812c3.15-1.582 6.295-3.175 9.44-4.769 3.214-1.628 6.434-3.247 9.653-4.866A8044 8044 0 0 0 410 273v-2q-10.842-5.491-21.697-10.952-5.041-2.536-10.075-5.085-4.858-2.46-9.726-4.902a906 906 0 0 1-3.708-1.876 884 884 0 0 0-5.2-2.615l-2.987-1.507c-4.863-1.983-7.77-.728-12.202 1.507M80 299v75l30.875 15.5 9.753 4.904 5.764 2.888q1.928.966 3.855 1.937 2.915 1.468 5.835 2.925l3.324 1.67c2.423 1.314 2.423 1.314 4.594 1.176v-75l-30.875-15.5-9.753-4.904-5.764-2.888q-1.928-.966-3.855-1.937-2.915-1.468-5.835-2.925l-3.324-1.67c-2.423-1.314-2.423-1.314-4.594-1.176m152.082 2.846-1.863.93q-2.99 1.5-5.977 3.005l-3.687 1.847c-4.562 2.286-9.12 4.58-13.68 6.872L176 330v75c4.343-1.448 7.971-2.863 12.005-4.89l3.567-1.783 3.701-1.866 3.437-1.721q6.335-3.179 12.665-6.365L240 374v-75c-3.06 0-5.193 1.478-7.918 2.846M272 299v75l30.875 15.5 9.753 4.904 5.764 2.888q1.928.966 3.855 1.937 2.914 1.468 5.835 2.925l3.324 1.67c2.423 1.314 2.423 1.314 4.594 1.176v-75l-30.875-15.5-9.753-4.904-5.764-2.888q-1.928-.966-3.855-1.937-2.914-1.468-5.835-2.925l-3.324-1.67c-2.423-1.314-2.423-1.314-4.594-1.176m152.082 2.846-1.863.93q-2.99 1.5-5.977 3.005l-3.687 1.847c-4.562 2.286-9.12 4.58-13.68 6.872L368 330v75c4.343-1.448 7.971-2.863 12.005-4.89l3.567-1.783 3.701-1.866 3.437-1.721q6.335-3.179 12.665-6.365L432 374v-75c-3.06 0-5.193 1.478-7.918 2.846"/></svg>