<svg preserveAspectRatio="xMidYMid meet" viewBox="0 0 512 512"  xmlns="http://www.w3.org/2000/svg" width="512" height="512"><path fill="#FB6220" d="m413 57 1.599 1.307C425.727 67.45 436.797 76.884 446 88l2.441 2.781c44.875 51.291 64.494 118.496 60.332 185.896C504.823 326.024 486.446 374.594 455 413l-1.307 1.599C444.55 425.727 435.116 436.797 424 446l-2.781 2.441c-51.291 44.875-118.496 64.494-185.896 60.332C185.976 504.823 137.406 486.446 99 455l-1.599-1.307C86.273 444.55 75.203 435.116 66 424l-2.441-2.781C18.684 369.928-.935 302.723 3.227 235.323 7.177 185.976 25.554 137.406 57 99l1.307-1.599C67.45 86.273 76.884 75.203 88 66l2.781-2.441C160.51 2.553 260.006-12.578 413 57"/><path fill="#FEFEFD" d="m304.741 154.823 2.1-.02c2.298-.02 4.596-.031 6.893-.041l2.38-.013q6.234-.03 12.469-.044a1924 1924 0 0 0 12.865-.085c3.301-.027 6.602-.035 9.904-.038q2.37-.008 4.74-.035c2.217-.025 4.433-.024 6.65-.017l3.817-.018c5.205.738 9.003 3.473 12.253 7.55 3.056 4.103 3.313 6.822 3.308 11.804l.004 3.701-.01 4.084v4.357q-.001 5.838-.013 11.678-.007 5.478-.006 10.954c-.006 10.683-.02 21.365-.033 32.047L382 313H130c0-122.732 0-122.732 5.633-128.742 4.345-3.299 6.358-4.383 11.775-4.39l3.48-.011 3.836.001 4.026-.01q4.34-.012 8.68-.017 6.865-.01 13.728-.041l7.076-.029c10.655-.042 21.31-.075 31.966-.087q10.777-.011 21.553-.07 5.704-.032 11.408-.026 5.367.005 10.733-.037c1.937-.01 3.875-.001 5.812.009l3.505-.038 3.04-.007c3.526-.648 5.199-2.029 7.749-4.505 1.41-3.032 1.41-3.032 2.375-6.375 3.37-9.52 8.317-13.723 18.366-13.802"/><path fill="#3D4144" d="M250 319h12v19h35v19h-82v-19h35z"/><path fill="#FEFBF9" d="M302 344h66v6h-66z"/><path fill="#FEFBFA" d="M144 344h66v6h-66z"/></svg>